# xmcd CD database file
#
# Track frame offsets:
#	151
#	12103
#	28975
#	42725
#	58661
#	77614
#	101062
#	113189
#	130916
#	151589
#	172274
#	189580
#	197031
#	214513
#	225432
#	233740
#	240763
#	258408
#	264179
#
# Disc length: 3721 seconds
#
# Revision: 0
# Processed by: cddbd v1.5.2PL0 Copyright (c) Steve Scherf et al.
# Submitted via: CDex 1.70beta2
#
DISCID=f50e8713
DTITLE=Swiss Clarinet Players - Harlem Nocturne
DYEAR=1995
DGENRE=Klarinettenquartett
TTITLE0=Rhapsody in Blue (George Gershwin, arr. G.Cappuccio)
TTITLE1=Conversation (Robert Watson)
TTITLE2=Blue Monk (Thelonious Monk, arr. F. Reinshagen)
TTITLE3=River Man (Rich Rothenberg)
TTITLE4=Goodbye Pork Pie Hat (Charles Mingus, arr. F. Reinshagen)
TTITLE5=Underground (Jim Hartog)
TTITLE6=An American In Paris (George Gershwin, arr. G. Cappuccio
TTITLE7=After Dark Suite (Jeffrey Agrell - 1. Stepping Out
TTITLE8=After Dark Suite (Jeffrey Agrell - 2. Night Shade
TTITLE9=After Dark Suite (Jeffrey Agrell - 3. Between Rock and a Hard Place
TTITLE10=Libertango (Astor Piazzolla, arr. M. Niederhauser)
TTITLE11=Three Songs (George Gershwin) - 1. Oh Lady Be Good
TTITLE12=Three Songs (George Gershwin) - 2. Summertime
TTITLE13=Three Songs (George Gershwin) - 3. Somebody Loves Me
TTITLE14=Mambo (Jeffrey Agrell)
TTITLE15=Three Preludes (George Gershwin, arr.W. Schlei) - 1. Allegro ben ritmato e deciso
TTITLE16=Three Preludes (George Gershwin, arr.W. Schlei) - 2. Andante con moto e poco rubato
TTITLE17=Three Preludes (George Gershwin, arr.W. Schlei) - 3. Allegro ben ritmato e deciso
TTITLE18=Harlem Nocturne (Peter Sigrist)
EXTD=YEAR: 1995
EXTT0=
EXTT1=
EXTT2=
EXTT3=
EXTT4=
EXTT5=
EXTT6=
EXTT7=
EXTT8=
EXTT9=
EXTT10=
EXTT11=
EXTT12=
EXTT13=
EXTT14=
EXTT15=
EXTT16=
EXTT17=
EXTT18=
PLAYORDER=
